<svg width="24" height="24" viewBox="0 0 24 24" fill="none" xmlns="http://www.w3.org/2000/svg">
<path opacity="0.12" d="M12.0002 18.5288C13.1798 17.6986 14.3791 16.6922 15.536 15.5353C16.6927 14.3786 17.6989 13.1795 18.5291 12C17.6989 10.8205 16.6926 9.6213 15.5358 8.4645C14.379 7.30766 13.1798 6.30136 12.0002 5.47113C10.8207 6.30132 9.62162 7.30755 8.46489 8.46428C7.30802 9.62115 6.30168 10.8204 5.47144 12C6.30165 13.1796 7.30794 14.3788 8.46475 15.5356C9.62153 16.6923 10.8207 17.6986 12.0002 18.5288Z" fill="currentColor"/>
<path d="M12 12H12.01M15.5355 15.5355C10.8492 20.2218 5.46734 22.4379 3.51472 20.4853C1.5621 18.5326 3.77818 13.1507 8.46447 8.46446C13.1508 3.77816 18.5327 1.56209 20.4853 3.51471C22.4379 5.46733 20.2218 10.8492 15.5355 15.5355ZM15.5355 8.46428C20.2218 13.1506 22.4379 18.5325 20.4852 20.4851C18.5326 22.4377 13.1507 20.2216 8.46443 15.5353C3.77814 10.8491 1.56206 5.46715 3.51468 3.51453C5.4673 1.56191 10.8492 3.77798 15.5355 8.46428ZM12.5 12C12.5 12.2761 12.2761 12.5 12 12.5C11.7239 12.5 11.5 12.2761 11.5 12C11.5 11.7238 11.7239 11.5 12 11.5C12.2761 11.5 12.5 11.7238 12.5 12Z" stroke="currentColor" stroke-width="2" stroke-linecap="round" stroke-linejoin="round"/>
</svg>
