<svg width="81" height="80" viewBox="0 0 81 80" fill="none" xmlns="http://www.w3.org/2000/svg">
<g id="Empty State Illustration">
<rect x="0.5" width="80" height="80" rx="40" fill="#F6F8FA"/>
<path id="vector" d="M24.9191 15.1354C24.8888 15.3951 24.8833 15.5413 24.8833 15.5413C24.985 17.8564 30.1525 19.5157 36.4278 19.2505C42.6981 18.9868 47.7048 16.8952 47.6012 14.5832C47.6012 14.5832 47.5999 14.5782 47.6024 14.5669C47.606 14.0779 47.528 4.06383 36.7796 3.64404C26.6865 3.24867 25.1335 13.0029 24.9191 15.1354Z" fill="white" stroke="#868C98" stroke-linecap="round" stroke-linejoin="round"/>
<path id="vector_2" d="M36.4416 19.2784C42.7013 19.0176 47.7041 17.1494 47.6156 15.1057C47.5271 13.0619 42.3809 11.6165 36.1212 11.8773C29.8615 12.138 24.8587 14.0062 24.9472 16.05C25.0357 18.0937 30.1819 19.5391 36.4416 19.2784Z" fill="#868C98" stroke="#868C98" stroke-linecap="round" stroke-linejoin="round"/>
<path id="vector_3" d="M54.0068 18.8522C52.8618 18.0599 51.6439 17.3453 50.3592 16.7115C36.001 9.62769 18.6092 15.4657 11.512 29.7514C4.4149 44.0372 10.3007 61.3596 24.6588 68.4434C25.9435 69.0773 27.2522 69.6091 28.5787 70.0363C42.0485 74.4158 57.0438 68.4111 63.506 55.4035C69.9681 42.3959 65.6683 26.8717 54.0068 18.8522ZM26.3689 65.0013C23.8147 63.7412 21.5687 62.1063 19.6678 60.1983C12.3001 52.8044 10.0788 41.2991 14.9685 31.4567C19.8582 21.6143 30.3876 16.3961 40.7536 17.755C43.4286 18.1046 46.095 18.8935 48.6492 20.1536C61.0955 26.2942 66.2001 41.3099 60.0465 53.6966C53.8928 66.0832 38.8152 71.1419 26.3689 65.0013Z" fill="white" stroke="#868C98" stroke-linecap="round" stroke-linejoin="round"/>
<path id="vector_4" d="M22.7879 61.7364C24.3025 63.2567 26.033 64.6031 27.9685 65.7209C27.4303 65.5009 26.8982 65.2611 26.369 65.0001C23.8149 63.74 21.5688 62.1051 19.6679 60.1971C12.3002 52.8031 10.0789 41.2979 14.9686 31.4555C19.8583 21.613 30.3878 16.3949 40.7537 17.7537C43.4288 18.1034 46.0951 18.8922 48.6493 20.1523C49.1784 20.4134 49.6924 20.6898 50.1943 20.9828C48.1288 20.1267 46.0052 19.5716 43.8737 19.293C33.5078 17.9341 22.9798 23.1493 18.0887 32.9947C13.1975 42.8401 15.4202 54.3424 22.7879 61.7364Z" fill="#CDD0D5" stroke="#868C98" stroke-linecap="round" stroke-linejoin="round"/>
<path id="vector_5" d="M60.0465 53.6955C54.1559 65.5526 40.0798 70.696 27.9684 65.721C26.0329 64.6032 24.3024 63.2568 22.7878 61.7365C15.4201 54.3426 13.1989 42.8373 18.0886 32.9949C22.9783 23.1525 33.5077 17.9343 43.8736 19.2932C46.0051 19.5717 48.1287 20.1269 50.1942 20.9829C61.5073 27.5648 65.9386 41.8353 60.0465 53.6955Z" fill="white" stroke="#868C98" stroke-linecap="round" stroke-linejoin="round"/>
<path id="vector_6" d="M71.0735 59.137C63.9764 73.4228 46.5845 79.2608 32.2263 72.177L24.6588 68.4434C25.9435 69.0773 27.2522 69.6091 28.5787 70.0363C42.0485 74.4158 57.0438 68.4111 63.506 55.4035C69.9681 42.3959 65.6683 26.8717 54.0068 18.8522C52.8618 18.0599 51.6439 17.3453 50.3592 16.7115L57.9267 20.4451C72.2848 27.5289 78.1707 44.8513 71.0735 59.137Z" fill="#E2E4E9" stroke="#868C98" stroke-linecap="round" stroke-linejoin="round"/>
<path id="vector_7" d="M72.9533 39.7294C72.8668 39.8193 72.7634 39.8971 72.6553 39.9613C72.6553 39.9613 72.7663 39.8835 72.9533 39.7294Z" fill="white" stroke="#868C98" stroke-linecap="round" stroke-linejoin="round"/>
<path id="vector_8" d="M74.3839 40.2069C74.1816 40.3736 74.0616 40.4577 74.0616 40.4577C72.0569 41.6326 67.8477 38.2158 64.6561 32.8257C61.466 27.4406 60.5025 22.117 62.5056 20.9455C62.5056 20.9455 62.5105 20.9438 62.5187 20.9356C62.9284 20.6665 71.4028 15.2822 77.6053 24.0387C83.4307 32.261 76.0627 38.8672 74.3839 40.2069Z" fill="white" stroke="#868C98" stroke-linecap="round" stroke-linejoin="round"/>
<path id="vector_9" fill-rule="evenodd" clip-rule="evenodd" d="M30.5223 29.6314C31.1034 29.4348 31.7344 29.7448 31.9316 30.3239L34.8404 38.8625C35.0376 39.4416 34.7265 40.0704 34.1454 40.2669C33.5643 40.4635 32.9334 40.1535 32.7361 39.5744L29.8274 31.0358C29.6301 30.4567 29.9412 29.8279 30.5223 29.6314Z" fill="#868C98"/>
<path id="vector_10" fill-rule="evenodd" clip-rule="evenodd" d="M37.6702 33.1437C37.8675 33.7228 37.5563 34.3515 36.9753 34.5481L28.407 37.4468C27.8259 37.6434 27.195 37.3333 26.9977 36.7542C26.8004 36.1752 27.1116 35.5464 27.6927 35.3498L36.2609 32.4511C36.842 32.2546 37.473 32.5646 37.6702 33.1437Z" fill="#868C98"/>
<path id="vector_11" fill-rule="evenodd" clip-rule="evenodd" d="M48.0524 38.2456C48.6335 38.049 49.2645 38.3591 49.4617 38.9381L52.3705 47.4767C52.5677 48.0558 52.2566 48.6846 51.6755 48.8811C51.0944 49.0777 50.4635 48.7677 50.2662 48.1886L47.3574 39.65C47.1602 39.071 47.4713 38.4422 48.0524 38.2456Z" fill="#868C98"/>
<path id="vector_12" fill-rule="evenodd" clip-rule="evenodd" d="M55.2003 41.758C55.3976 42.337 55.0864 42.9658 54.5054 43.1624L45.9371 46.0611C45.356 46.2577 44.7251 45.9476 44.5278 45.3686C44.3305 44.7895 44.6417 44.1607 45.2227 43.9641L53.791 41.0654C54.3721 40.8688 55.0031 41.1789 55.2003 41.758Z" fill="#868C98"/>
<path id="vector_13" d="M42.2146 53.3721L41.4184 54.9747L37.8176 53.1982L38.6138 51.5956C38.8611 51.0978 39.287 50.7494 39.7712 50.5864C40.2609 50.4263 40.8116 50.4459 41.3056 50.6896C42.3046 51.1825 42.7065 52.382 42.2146 53.3721Z" fill="#868C98" stroke="#868C98" stroke-linecap="round" stroke-linejoin="round"/>
<path id="vector_14" d="M41.3056 50.6898C40.8116 50.4461 40.2609 50.4265 39.7712 50.5866C39.287 50.7496 38.8611 51.098 38.6138 51.5957L28.7354 71.4798C27.6539 73.6569 24.995 74.5517 22.8104 73.4739C20.6203 72.3934 19.7278 69.7464 20.8094 67.5694C21.7577 65.6603 23.9043 64.7374 25.895 65.2564L12.5066 60.524L21.2083 43.0084C21.7002 42.0183 22.9065 41.6123 23.9 42.1025L41.3056 50.6898Z" fill="white" stroke="#868C98" stroke-linecap="round" stroke-linejoin="round"/>
<path id="vector_15" d="M22.8104 73.4738L9.38426 66.8089C7.64426 65.9504 6.92644 63.846 7.78794 62.112C8.65207 60.3726 10.7666 59.6654 12.5066 60.5239L25.8951 65.2563C23.9044 64.7373 21.7578 65.6602 20.8094 67.5693C19.7278 69.7463 20.6203 72.3933 22.8104 73.4738Z" fill="#E2E4E9" stroke="#868C98" stroke-linecap="round" stroke-linejoin="round"/>
<path id="vector_16" d="M20.2098 53.4594L20.6381 53.6707C21.0833 53.8903 21.6209 53.7908 21.9585 53.4263L25.5226 49.5776C25.8602 49.213 26.3977 49.1136 26.843 49.3332L27.5012 49.658C27.9443 49.8766 28.1908 50.3594 28.1079 50.8461L27.5989 53.8324C27.5159 54.3191 27.7625 54.8019 28.2055 55.0205L29.1966 55.5095C29.5408 55.6793 29.7735 56.0133 29.8132 56.3946L29.9472 57.6825C29.9868 58.0638 30.2195 58.3978 30.5637 58.5676L31.3582 58.9596" stroke="#868C98" stroke-miterlimit="10" stroke-linecap="round" stroke-linejoin="round"/>
<path id="vector_17" d="M74.9445 73.8889C74.9445 73.8889 71.0556 73.9021 71.0556 77.7778C71.0556 73.9021 67.1667 73.8889 67.1667 73.8889C67.1667 73.8889 71.0556 73.8756 71.0556 70C71.0556 73.8756 74.9445 73.8889 74.9445 73.8889Z" stroke="#868C98" stroke-linecap="round" stroke-linejoin="round"/>
<path id="vector_18" d="M8.27778 16.1111C8.27778 16.1111 4.38888 16.1244 4.38888 20C4.38888 16.1244 0.5 16.1111 0.5 16.1111C0.5 16.1111 4.38888 16.0979 4.38888 12.2222C4.38888 16.0979 8.27778 16.1111 8.27778 16.1111Z" stroke="#868C98" stroke-linecap="round" stroke-linejoin="round"/>
</g>
</svg>
