<svg width="24" height="24" viewBox="0 0 24 24" fill="none" xmlns="http://www.w3.org/2000/svg">
<path opacity="0.12" d="M6 7.6C6 6.33988 6 5.70982 6.24524 5.22852C6.46095 4.80516 6.80516 4.46095 7.22852 4.24524C7.70982 4 8.33988 4 9.6 4H14.4C15.6601 4 16.2902 4 16.7715 4.24524C17.1948 4.46095 17.539 4.80516 17.7548 5.22852C18 5.70982 18 6.33988 18 7.6V15.4C18 16.6601 18 17.2902 17.7548 17.7715C17.539 18.1948 17.1948 18.539 16.7715 18.7548C16.2902 19 15.6601 19 14.4 19H9.6C8.33988 19 7.70982 19 7.22852 18.7548C6.80516 18.539 6.46095 18.1948 6.24524 17.7715C6 17.2902 6 16.6601 6 15.4V7.6Z" fill="currentColor"/>
<path d="M9 13V16M15 11.5V16M12 8.5V16M18 7.6V15.4C18 16.6601 18 17.2902 17.7548 17.7715C17.539 18.1948 17.1948 18.539 16.7715 18.7548C16.2902 19 15.6601 19 14.4 19H9.6C8.33988 19 7.70982 19 7.22852 18.7548C6.80516 18.539 6.46095 18.1948 6.24524 17.7715C6 17.2902 6 16.6601 6 15.4V7.6C6 6.33988 6 5.70982 6.24524 5.22852C6.46095 4.80516 6.80516 4.46095 7.22852 4.24524C7.70982 4 8.33988 4 9.6 4H14.4C15.6601 4 16.2902 4 16.7715 4.24524C17.1948 4.46095 17.539 4.80516 17.7548 5.22852C18 5.70982 18 6.33988 18 7.6Z" stroke="currentColor" stroke-width="1.5" stroke-linecap="round" stroke-linejoin="round"/>
</svg>
