<svg width="17" height="16" viewBox="0 0 17 16" fill="none" xmlns="http://www.w3.org/2000/svg">
<g id="play-fill">
<path id="Vector" d="M12.9256 8.2496L6.56621 12.4892C6.52103 12.5193 6.46854 12.5365 6.41434 12.5391C6.36014 12.5417 6.30625 12.5295 6.25841 12.5039C6.21057 12.4783 6.17057 12.4402 6.14267 12.3937C6.11478 12.3471 6.10003 12.2939 6.10001 12.2396V3.7604C6.10003 3.70614 6.11478 3.65289 6.14267 3.60635C6.17057 3.5598 6.21057 3.52169 6.25841 3.49608C6.30625 3.47046 6.36014 3.45831 6.41434 3.4609C6.46854 3.46349 6.52103 3.48074 6.56621 3.5108L12.9256 7.7504C12.9667 7.7778 13.0004 7.81491 13.0237 7.85846C13.047 7.902 13.0592 7.95062 13.0592 8C13.0592 8.04938 13.047 8.098 13.0237 8.14155C13.0004 8.18509 12.9667 8.2222 12.9256 8.2496Z" fill="currentColor"/>
</g>
</svg>
